<svg aria-hidden="true" style="position: absolute; width: 0; height: 0; overflow: hidden;" version="1.1" xmlns="http://www.w3.org/2000/svg" xmlns:xlink="http://www.w3.org/1999/xlink">
<defs>
<symbol id="up" viewBox="0 0 32 32">
<path d="M16.879 9.464c-0.24-0.239-0.569-0.314-0.879-0.259-0.31-0.055-0.639 0.020-0.879 0.259l-5.657 5.657c-0.391 0.391-0.391 1.024 0 1.414 0.391 0.391 1.024 0.391 1.414 0l4.122-4.121v10.586c0 0.552 0.448 1 1 1s1-0.448 1-1v-10.586l4.121 4.121c0.391 0.391 1.024 0.391 1.414 0 0.391-0.391 0.391-1.024 0-1.414l-5.656-5.657zM16 0c-8.836 0-16 7.163-16 16s7.164 16 16 16c8.837 0 16-7.164 16-16s-7.163-16-16-16zM16 30c-7.732 0-14-6.268-14-14s6.268-14 14-14 14 6.268 14 14-6.268 14-14 14z"></path>
</symbol>
<symbol id="close" viewBox="0 0 32 32">
<path stroke-linejoin="miter" stroke-linecap="butt" stroke-miterlimit="4" stroke-width="2.1333" d="M8.533 8.533l14.933 14.933"></path>
<path stroke-linejoin="miter" stroke-linecap="butt" stroke-miterlimit="4" stroke-width="2.1333" d="M8.533 23.467l14.933-14.933"></path>
</symbol>
<symbol id="search" viewBox="0 0 32 32">
<path fill="none" stroke="#fff" style="stroke: var(--color1, #fff)" stroke-linejoin="round" stroke-linecap="round" stroke-miterlimit="4" stroke-width="2.6667" d="M14.667 25.333c5.891 0 10.667-4.776 10.667-10.667s-4.776-10.667-10.667-10.667v0c-5.891 0-10.667 4.776-10.667 10.667s4.776 10.667 10.667 10.667v0zM28 28l-5.8-5.8"></path>
</symbol>
<symbol id="film" viewBox="0 0 32 32">
<path fill="none" stroke="#fff" style="stroke: var(--color1, #fff)" stroke-linejoin="round" stroke-linecap="round" stroke-miterlimit="4" stroke-width="2.6667" d="M26.427 3.605h-20.853c-1.605 0-2.907 1.24-2.907 2.768v19.856c0 1.528 1.301 2.768 2.907 2.768h20.853c1.605 0 2.907-1.24 2.907-2.768v-19.856c0-1.528-1.301-2.768-2.907-2.768zM9.333 3.605v25.392M22.667 3.605v25.392M2.667 16.301h26.667M2.667 9.953h6.667M2.667 22.649h6.667M22.667 22.649h6.667M22.667 9.953h6.667"></path>
</symbol>
<symbol id="Filmoteka" viewBox="0 0 173 32">
<path fill="#fff" style="fill: var(--color1, #fff)" d="M5.572 2.229v28.437h-4.903v-28.437h4.903zM17.172 14.669v3.888h-12.849v-3.887h12.852zM18.795 2.229v3.907h-14.475v-3.907h14.473zM27.271 9.533v21.133h-4.727v-21.133h4.727zM22.231 3.987c0-0.716 0.236-1.308 0.704-1.777 0.481-0.481 1.147-0.723 1.992-0.723 0.833 0 1.492 0.24 1.973 0.723 0.481 0.469 0.723 1.061 0.723 1.777 0 0.704-0.24 1.289-0.723 1.759-0.481 0.468-1.14 0.703-1.973 0.703-0.845 0-1.511-0.235-1.992-0.703-0.468-0.469-0.703-1.055-0.703-1.759zM37.467 0.667v30h-4.727v-30h4.727zM47.329 13.831v16.836h-4.707v-21.133h4.433l0.273 4.297zM46.568 19.319l-1.601-0.019c0-1.459 0.181-2.807 0.547-4.044 0.364-1.236 0.899-2.311 1.6-3.223 0.686-0.902 1.565-1.623 2.578-2.108l0.042-0.018c1.053-0.508 2.272-0.763 3.653-0.763 0.963 0 1.84 0.144 2.636 0.431 0.821 0.278 1.522 0.727 2.088 1.307l0.001 0.001c0.6 0.6 1.055 1.368 1.367 2.305 0.327 0.937 0.489 2.069 0.489 3.397v14.081h-4.707v-13.672c0-1.028-0.157-1.836-0.469-2.421-0.277-0.561-0.733-0.998-1.293-1.244l-0.017-0.007c-0.56-0.26-1.229-0.391-2.011-0.391-0.887 0-1.64 0.169-2.267 0.508-0.612 0.339-1.113 0.8-1.504 1.387s-0.676 1.263-0.859 2.032c-0.174 0.72-0.274 1.546-0.274 2.396 0 0.023 0 0.045 0 0.068l-0-0.003zM59.673 18.069l-2.207 0.488c0-1.276 0.175-2.48 0.527-3.613 0.361-1.154 0.902-2.155 1.597-3.027l-0.014 0.019c0.696-0.86 1.563-1.552 2.553-2.031l0.044-0.019c1.028-0.495 2.207-0.743 3.535-0.743 1.080 0 2.045 0.151 2.891 0.449 0.862 0.284 1.596 0.755 2.185 1.366l0.002 0.002c0.6 0.624 1.056 1.439 1.368 2.44 0.313 0.991 0.469 2.188 0.469 3.595v13.672h-4.727v-13.692c0-1.067-0.156-1.893-0.469-2.48-0.299-0.587-0.729-0.989-1.289-1.211-0.56-0.235-1.229-0.352-2.011-0.352-0.729 0-1.373 0.137-1.933 0.411-0.547 0.26-1.009 0.631-1.387 1.113-0.37 0.46-0.663 0.999-0.85 1.586l-0.010 0.035c-0.174 0.578-0.274 1.243-0.274 1.93 0 0.022 0 0.043 0 0.065l-0-0.003zM76.567 20.335v-0.449c0-1.524 0.223-2.936 0.665-4.239 0.443-1.315 1.080-2.453 1.913-3.417 0.835-0.96 1.865-1.728 3.032-2.245l0.055-0.022c1.224-0.547 2.604-0.82 4.14-0.82 1.549 0 2.931 0.273 4.141 0.821 1.229 0.535 2.266 1.303 3.097 2.255l0.009 0.010c0.847 0.964 1.491 2.103 1.933 3.417 0.443 1.303 0.664 2.716 0.664 4.24v0.448c0 1.524-0.221 2.936-0.664 4.239-0.444 1.318-1.103 2.455-1.944 3.43l0.011-0.013c-0.841 0.952-1.87 1.718-3.030 2.244l-0.056 0.023c-1.211 0.533-2.584 0.8-4.12 0.8-1.549 0-2.937-0.267-4.16-0.8-1.217-0.549-2.245-1.314-3.078-2.257l-0.008-0.010c-0.83-0.962-1.489-2.1-1.912-3.346l-0.021-0.071c-0.443-1.303-0.664-2.715-0.664-4.239zM81.275 19.885v0.449c0 0.951 0.097 1.849 0.293 2.696 0.187 0.843 0.504 1.588 0.934 2.254l-0.016-0.027c0.417 0.637 0.951 1.139 1.601 1.503 0.652 0.365 1.427 0.547 2.325 0.547 0.872 0 1.627-0.181 2.265-0.547 0.651-0.364 1.185-0.867 1.601-1.504 0.413-0.639 0.73-1.384 0.909-2.181l0.009-0.046c0.199-0.792 0.313-1.701 0.313-2.637 0-0.020-0-0.041-0-0.061v0.003-0.449c0-0.937-0.104-1.823-0.313-2.656-0.19-0.851-0.514-1.603-0.953-2.273l0.016 0.026c-0.403-0.634-0.942-1.148-1.578-1.511l-0.022-0.012c-0.64-0.377-1.4-0.567-2.287-0.567-0.885 0-1.653 0.189-2.304 0.567s-1.182 0.891-1.572 1.504l-0.011 0.018c-0.411 0.645-0.728 1.396-0.908 2.199l-0.009 0.047c-0.187 0.779-0.293 1.674-0.293 2.594 0 0.022 0 0.043 0 0.065v-0.003zM109.848 9.533v3.44h-11.913v-3.44h11.915zM101.373 4.36h4.707v20.467c0 0.651 0.092 1.152 0.275 1.504 0.195 0.339 0.461 0.567 0.8 0.684s0.736 0.176 1.192 0.176c0.325 0 0.637-0.020 0.937-0.059 0.299-0.040 0.54-0.079 0.723-0.117l0.020 3.593c-0.365 0.112-0.826 0.221-1.296 0.302l-0.072 0.010c-0.507 0.092-1.093 0.137-1.757 0.137-1.080 0-2.037-0.189-2.871-0.567-0.835-0.391-1.485-1.021-1.953-1.893-0.469-0.873-0.704-2.032-0.704-3.477v-20.761zM122.8 31.057c-1.563 0-2.976-0.253-4.24-0.761-1.252-0.518-2.317-1.252-3.199-2.165l-0.003-0.003c-0.857-0.911-1.541-1.997-1.992-3.196l-0.022-0.066c-0.445-1.173-0.703-2.529-0.703-3.945 0-0.034 0-0.069 0-0.103l-0 0.005v-0.781c0-1.653 0.241-3.151 0.723-4.492 0.483-1.341 1.153-2.487 2.013-3.437 0.828-0.933 1.844-1.68 2.99-2.185l0.055-0.022c1.099-0.482 2.379-0.763 3.725-0.763 0.030 0 0.059 0 0.089 0l-0.005-0c1.511 0 2.832 0.253 3.964 0.763 1.125 0.5 2.068 1.229 2.802 2.134l0.011 0.014c0.755 0.912 1.315 2 1.68 3.261 0.377 1.264 0.565 2.656 0.565 4.18v2.012h-16.329v-3.379h11.68v-0.372c-0.022-0.864-0.206-1.68-0.523-2.426l0.016 0.043c-0.293-0.735-0.77-1.344-1.375-1.788l-0.011-0.008c-0.627-0.456-1.46-0.684-2.501-0.684-0.781 0-1.477 0.169-2.089 0.507-0.62 0.348-1.127 0.83-1.494 1.41l-0.010 0.017c-0.404 0.625-0.716 1.38-0.937 2.267-0.208 0.872-0.313 1.853-0.313 2.948v0.781c0 0.925 0.124 1.784 0.372 2.579 0.26 0.781 0.637 1.464 1.133 2.051 0.493 0.587 1.093 1.048 1.796 1.387 0.703 0.325 1.504 0.488 2.403 0.488 1.133 0 2.141-0.227 3.027-0.684 0.919-0.484 1.688-1.134 2.293-1.917l0.012-0.016 2.48 2.403c-0.516 0.728-1.102 1.358-1.761 1.901l-0.016 0.013c-0.729 0.599-1.621 1.087-2.676 1.464-1.041 0.377-2.253 0.567-3.632 0.567zM139.673 0.667v30h-4.727v-30h4.727zM152.799 9.533l-9.2 10.196-5.039 5.156-1.231-3.984 3.809-4.707 5.976-6.661h5.684zM148.131 30.667l-6.856-9.921 2.969-3.301 9.336 13.223h-5.449zM167.7 26.428v-10.077c0-0.756-0.136-1.407-0.409-1.953-0.277-0.548-0.708-0.984-1.235-1.262l-0.016-0.008c-0.547-0.3-1.236-0.449-2.069-0.449-0.769 0-1.433 0.129-1.993 0.391-0.532 0.237-0.974 0.597-1.302 1.044l-0.006 0.009c-0.294 0.41-0.47 0.921-0.47 1.474 0 0.011 0 0.022 0 0.033l-0-0.002h-4.687c0-0.833 0.201-1.64 0.605-2.423 0.404-0.781 0.989-1.477 1.757-2.089 0.768-0.613 1.687-1.093 2.755-1.445 1.067-0.352 2.265-0.528 3.593-0.528 1.588 0 2.995 0.267 4.219 0.801 1.237 0.533 2.207 1.341 2.911 2.421 0.716 1.068 1.073 2.409 1.073 4.024v9.395c0 0.964 0.065 1.829 0.196 2.597 0.143 0.755 0.345 1.413 0.605 1.973v0.312h-4.824c-0.221-0.507-0.397-1.152-0.528-1.933-0.11-0.691-0.174-1.49-0.176-2.303v-0.002zM168.384 17.815l0.039 2.911h-3.379c-0.872 0-1.64 0.084-2.304 0.253-0.664 0.157-1.217 0.391-1.66 0.704-0.42 0.29-0.758 0.671-0.989 1.116l-0.008 0.017c-0.21 0.423-0.332 0.921-0.332 1.448 0 0.019 0 0.039 0 0.058l-0-0.003c0 0.56 0.131 1.075 0.391 1.543 0.261 0.456 0.639 0.813 1.133 1.075 0.508 0.26 1.12 0.391 1.836 0.391 0.964 0 1.804-0.195 2.52-0.587 0.729-0.403 1.301-0.891 1.719-1.464 0.416-0.587 0.637-1.14 0.664-1.66l1.523 2.089c-0.156 0.533-0.423 1.107-0.8 1.72-0.427 0.67-0.918 1.248-1.478 1.751l-0.008 0.007c-0.599 0.547-1.321 0.996-2.168 1.347-0.832 0.352-1.796 0.528-2.889 0.528-1.381 0-2.611-0.273-3.692-0.82-1.081-0.56-1.927-1.309-2.539-2.247-0.612-0.951-0.919-2.024-0.919-3.223 0-1.12 0.208-2.109 0.625-2.968 0.445-0.89 1.081-1.626 1.857-2.176l0.018-0.012c0.833-0.587 1.849-1.028 3.047-1.328 1.199-0.312 2.565-0.469 4.103-0.469h3.691z"></path>
</symbol>
<symbol id="heart" viewBox="0 0 34 32">
<path fill="#ff6b08" style="fill: var(--color2, #ff6b08)" d="M17.231 31.705l-2.412-2.412c-8.96-7.926-14.818-13.268-14.818-19.815 0-5.342 4.135-9.477 9.477-9.477 2.929 0 5.858 1.378 7.754 3.618 1.895-2.24 4.825-3.618 7.754-3.618 5.342 0 9.477 4.135 9.477 9.477 0 6.548-5.858 11.889-14.818 19.815l-2.412 2.412z"></path>
</symbol>
</defs>
</svg>
