<svg xmlns="http://www.w3.org/2000/svg" xmlns:inkpad="http://taptrix.com/inkpad/svg_extensions" viewBox="0 0 512 512"><defs><linearGradient id="a" y2="58.798" gradientUnits="userSpaceOnUse" x2="195.28" gradientTransform="translate(-.494 -2.336)" y1="609.7" x1="524.76"><stop stop-color="#ffeef2" offset="0"/><stop stop-opacity="0" stop-color="#0ff" offset="1"/></linearGradient><linearGradient id="b" y2="388.38" gradientUnits="userSpaceOnUse" x2="328.71" gradientTransform="translate(-.163 .288)" y1="113.18" x1="192.38"><stop stop-opacity=".339" stop-color="#bd0000" offset="0"/><stop stop-color="#fe0" offset="1"/></linearGradient></defs><g inkpad:layerName="Layer 1"><path d="M70.77 252.62c0-97.44 81.76-176.43 182.61-176.43C354.24 76.194 436 155.18 436 252.62s-81.76 176.43-182.62 176.43c-100.85 0-182.61-78.99-182.61-176.43z" fill="#d9ac32"/><path d="M158.39 310.25c26.09-39.03 97.08-160.73 97.08-160.73l89.44 165.75c-189.09-1.46-192.21 3.49-186.52-5.02z"/><path d="M95.06 228.08c-4.085 23.36 202.3 40.94 255.57-99.95 0 0-79.06-62.93-183.48-2.34 0 0-59.14 28.23-72.09 102.29z" fill="url(#a)"/><path d="M92.85 252.24c0-84.25 73.55-152.54 164.27-152.54 90.72.002 154.45 64.67 154.45 148.91s-63.73 156.16-154.45 156.16S92.85 336.48 92.85 252.24z" fill="url(#b)"/></g></svg>